<?xml version="1.0" encoding="UTF-8"?>
<svg version="1.1" xmlns="http://www.w3.org/2000/svg" width="64" height="64">
<path d="M0 0 C7.76675969 5.2863574 13.38019908 11.09474305 15.95703125 20.33203125 C16.97849667 31.79382348 16.07180915 40.5604769 8.58203125 49.64453125 C3.05238769 55.57504449 -2.65763398 58.94121385 -10.8125 59.66796875 C-22.2900419 59.92562211 -29.79553736 58.0735478 -38.3203125 50.125 C-45.07902557 43.09042109 -46.45687681 35.78457741 -46.40649414 26.37695312 C-46.15072802 16.47368908 -42.06373178 10.07747024 -35.04296875 3.33203125 C-25.66852822 -3.93794304 -10.69212687 -5.78560593 0 0 Z " fill="#E4EBFF" transform="translate(47.04296875,3.66796875)"/>
<path d="M0 0 C3.88834815 2.28993098 6.83304065 5.10000367 9.6796875 8.578125 C7.10408495 14.36697928 2.70793336 17.47180908 -2.7578125 20.453125 C-10.33741719 22.92537887 -20.91514407 23.00344948 -28.3203125 20.015625 C-32.87138153 17.5866344 -36.63565188 14.1523462 -40.3203125 10.578125 C-37.39231515 4.01488456 -31.45112989 -0.08443235 -24.89453125 -2.72265625 C-16.15284936 -5.09710399 -8.11098613 -3.74353206 0 0 Z " fill="#4796FF" transform="translate(47.3203125,41.421875)"/>
<path d="M0 0 C4.08998175 1.80720124 6.66247347 4.19069751 9 8 C9.62819266 13.0255413 9.03320735 15.95572354 6 20 C3.24705395 23.21177039 0.96958591 23.86947882 -3.25 24.4375 C-8.1843364 23.86182742 -10.79803186 21.71753928 -14 18 C-15.23534045 14.29397865 -15.45528745 11.90246386 -15 8 C-10.91704021 1.64314568 -7.65816344 -0.51919752 0 0 Z " fill="#4595FF" transform="translate(35,10)"/>
</svg>
