<?xml version="1.0" encoding="UTF-8"?>
<svg version="1.1" xmlns="http://www.w3.org/2000/svg" width="64" height="64">
<path d="M0 0 C6.37206172 -0.02529825 12.74411054 -0.04284496 19.11621094 -0.05493164 C21.28516117 -0.05996891 23.454108 -0.06679891 25.62304688 -0.07543945 C28.73568563 -0.08753151 31.8482796 -0.09323428 34.9609375 -0.09765625 C35.934935 -0.10281754 36.9089325 -0.10797882 37.91244507 -0.11329651 C38.81322784 -0.11337204 39.71401062 -0.11344757 40.64208984 -0.11352539 C41.43706879 -0.115746 42.23204773 -0.11796661 43.05111694 -0.12025452 C45 0 45 0 47 1 C47.04936158 6.09031755 47.08570105 11.18049643 47.10986328 16.27099609 C47.11993376 18.00344265 47.13359089 19.73587216 47.15087891 21.46826172 C47.17508162 23.95544639 47.18647239 26.44240675 47.1953125 28.9296875 C47.20563507 29.70682098 47.21595764 30.48395447 47.22659302 31.28463745 C47.22699271 33.19125493 47.1223214 35.09731036 47 37 C45 39 45 39 41.7421875 39.1953125 C39.82792969 39.16050781 39.82792969 39.16050781 37.875 39.125 C35.95300781 39.09792969 35.95300781 39.09792969 33.9921875 39.0703125 C33.00476562 39.04710937 32.01734375 39.02390625 31 39 C31 40.98 31 42.96 31 45 C32.65 45.33 34.3 45.66 36 46 C35.67 47.32 35.34 48.64 35 50 C26.75 50 18.5 50 10 50 C9.67 48.68 9.34 47.36 9 46 C10 45 10 45 12.5625 44.9375 C13.366875 44.958125 14.17125 44.97875 15 45 C15 43.02 15 41.04 15 39 C12.03 39 9.06 39 6 39 C6.01160156 39.71027344 6.02320312 40.42054687 6.03515625 41.15234375 C6.04417969 42.07144531 6.05320312 42.99054687 6.0625 43.9375 C6.07410156 44.85402344 6.08570312 45.77054688 6.09765625 46.71484375 C6 49 6 49 5 50 C-2.26 50 -9.52 50 -17 50 C-17 34.82 -17 19.64 -17 4 C-12.05 4 -7.1 4 -2 4 C-1.34 2.68 -0.68 1.36 0 0 Z " fill="#3D5E61" transform="translate(17,7)"/>
<path d="M0 0 C13.53 0 27.06 0 41 0 C41 10.23 41 20.46 41 31 C27.47 31 13.94 31 0 31 C0 20.77 0 10.54 0 0 Z " fill="#179ADC" transform="translate(19,11)"/>
<path d="M0 0 C4.95 0 9.9 0 15 0 C15.33 10.56 15.66 21.12 16 32 C18.31 32.66 20.62 33.32 23 34 C23.02687279 35.81242052 23.04633715 37.62495233 23.0625 39.4375 C23.07410156 40.44683594 23.08570312 41.45617188 23.09765625 42.49609375 C23 45 23 45 22 46 C14.74 46 7.48 46 0 46 C0 30.82 0 15.64 0 0 Z " fill="#3F5D5A" transform="translate(0,11)"/>
<path d="M0 0 C6.93 0 13.86 0 21 0 C21 9.57 21 19.14 21 29 C14.07 29 7.14 29 0 29 C0 19.43 0 9.86 0 0 Z " fill="#18BFEE" transform="translate(19,12)"/>
<path d="M0 0 C0.91120605 0.01047363 1.82241211 0.02094727 2.76123047 0.03173828 C3.74736328 0.03818359 4.73349609 0.04462891 5.74951172 0.05126953 C7.29832031 0.07640625 7.29832031 0.07640625 8.87841797 0.10205078 C9.91869141 0.11107422 10.95896484 0.12009766 12.03076172 0.12939453 C14.60520889 0.15301331 17.17920009 0.18594929 19.75341797 0.22705078 C19.75341797 1.54705078 19.75341797 2.86705078 19.75341797 4.22705078 C13.15341797 4.22705078 6.55341797 4.22705078 -0.24658203 4.22705078 C-0.24658203 14.45705078 -0.24658203 24.68705078 -0.24658203 35.22705078 C6.68341797 35.22705078 13.61341797 35.22705078 20.75341797 35.22705078 C20.75341797 36.21705078 20.75341797 37.20705078 20.75341797 38.22705078 C12.38366028 39.44447008 4.8345553 40.08912025 -3.24658203 37.22705078 C-5.21399832 35.2596345 -4.4104641 31.45137348 -4.41455078 28.76220703 C-4.41787918 28.0136998 -4.42120758 27.26519257 -4.42463684 26.4940033 C-4.42970896 24.90771094 -4.43204508 23.32140788 -4.43188477 21.73510742 C-4.43406976 19.30320709 -4.45221784 16.87176129 -4.47119141 14.43994141 C-4.47412553 12.90153151 -4.4761102 11.36311944 -4.47705078 9.82470703 C-4.4842363 9.09445816 -4.49142181 8.36420929 -4.49882507 7.61183167 C-4.4663001 0.45138656 -4.4663001 0.45138656 0 0 Z " fill="#527780" transform="translate(19.24658203125,6.77294921875)"/>
<path d="M0 0 C1.32 0 2.64 0 4 0 C4.33 4.62 4.66 9.24 5 14 C7.31 14.66 9.62 15.32 12 16 C12.02687279 17.81242052 12.04633715 19.62495233 12.0625 21.4375 C12.07410156 22.44683594 12.08570313 23.45617187 12.09765625 24.49609375 C12 27 12 27 11 28 C9.14712498 28.07226502 7.29166122 28.0838122 5.4375 28.0625 C4.42558594 28.05347656 3.41367188 28.04445313 2.37109375 28.03515625 C1.58863281 28.02355469 0.80617188 28.01195313 0 28 C0 26.68 0 25.36 0 24 C0.66 24 1.32 24 2 24 C2 22.68 2 21.36 2 20 C1.34 20 0.68 20 0 20 C0 13.4 0 6.8 0 0 Z " fill="#2A3B3B" transform="translate(11,29)"/>
<path d="M0 0 C4.95 0 9.9 0 15 0 C15 5.94 15 11.88 15 18 C13.68 18 12.36 18 11 18 C11 15.36 11 12.72 11 10 C7.37 10 3.74 10 0 10 C0 6.7 0 3.4 0 0 Z " fill="#3E5959" transform="translate(0,11)"/>
<path d="M0 0 C1.5631897 0.00785522 1.5631897 0.00785522 3.15795898 0.01586914 C4.28266602 0.0190918 5.40737305 0.02231445 6.56616211 0.02563477 C7.75016602 0.03401367 8.93416992 0.04239258 10.15405273 0.05102539 C11.34192383 0.05553711 12.52979492 0.06004883 13.75366211 0.06469727 C16.69967499 0.07652864 19.64558954 0.09301252 22.59155273 0.11352539 C23.15405273 2.05102539 23.15405273 2.05102539 23.59155273 4.11352539 C22.59155273 5.11352539 22.59155273 5.11352539 20.18310547 5.22705078 C19.140979 5.22181396 18.09885254 5.21657715 17.02514648 5.21118164 C15.90043945 5.20795898 14.77573242 5.20473633 13.61694336 5.20141602 C12.43293945 5.19303711 11.24893555 5.1846582 10.02905273 5.17602539 C8.84118164 5.17151367 7.65331055 5.16700195 6.42944336 5.16235352 C3.48343047 5.15052214 0.53751593 5.13403826 -2.40844727 5.11352539 C-2.97094727 3.17602539 -2.97094727 3.17602539 -3.40844727 1.11352539 C-2.40844727 0.11352539 -2.40844727 0.11352539 0 0 Z " fill="#415E60" transform="translate(29.408447265625,51.886474609375)"/>
<path d="M0 0 C2.47923801 -0.02685095 4.9581884 -0.04676547 7.4375 -0.0625 C8.14455078 -0.07087891 8.85160156 -0.07925781 9.58007812 -0.08789062 C11.38693559 -0.09653588 13.19387603 -0.05220011 15 0 C16 1 16 1 16 7 C10.72 7 5.44 7 0 7 C0 4.69 0 2.38 0 0 Z " fill="#3D5858" transform="translate(32,45)"/>
<path d="M0 0 C3.63 0 7.26 0 11 0 C11 2.31 11 4.62 11 7 C7.37 7 3.74 7 0 7 C0 4.69 0 2.38 0 0 Z " fill="#547983" transform="translate(0,21)"/>
<path d="M0 0 C1.32 0 2.64 0 4 0 C4 5.94 4 11.88 4 18 C2.68 18 1.36 18 0 18 C0 12.06 0 6.12 0 0 Z " fill="#3D5859" transform="translate(11,11)"/>
<path d="M0 0 C2.02408755 0.09002398 4.04544287 0.24641038 6.0625 0.4375 C7.71958984 0.59025391 7.71958984 0.59025391 9.41015625 0.74609375 C10.26480469 0.82988281 11.11945312 0.91367187 12 1 C12 2.32 12 3.64 12 5 C8.04 5 4.08 5 0 5 C-0.33 3.68 -0.66 2.36 -1 1 C-0.67 0.67 -0.34 0.34 0 0 Z " fill="#547882" transform="translate(27,52)"/>
<path d="M0 0 C2.33294775 -0.04241723 4.66702567 -0.04092937 7 0 C8 1 8 1 8.0625 4.0625 C8.041875 5.031875 8.02125 6.00125 8 7 C5.36 7 2.72 7 0 7 C0 4.69 0 2.38 0 0 Z " fill="#2B3C3C" transform="translate(40,45)"/>
<path d="M0 0 C1.32 0 2.64 0 4 0 C4 2.97 4 5.94 4 9 C2.68 9 1.36 9 0 9 C0 6.03 0 3.06 0 0 Z " fill="#2B3B3B" transform="translate(11,11)"/>
</svg>
