<?xml version="1.0" encoding="UTF-8"?>
<svg version="1.1" xmlns="http://www.w3.org/2000/svg" width="64" height="64">
<path d="M0 0 C0.99 0 1.98 0 3 0 C3 0.66 3 1.32 3 2 C8.94 2 14.88 2 21 2 C21 1.34 21 0.68 21 0 C21.66 0 22.32 0 23 0 C23 0.66 23 1.32 23 2 C28.94 2 34.88 2 41 2 C41 1.34 41 0.68 41 0 C41.99 0 42.98 0 44 0 C44 0.66 44 1.32 44 2 C44.639375 2.144375 45.27875 2.28875 45.9375 2.4375 C48 3 48 3 49 4 C49.10374452 5.57985751 49.13851868 7.16431282 49.14526367 8.74755859 C49.15164352 9.75885834 49.15802338 10.77015808 49.16459656 11.81210327 C49.16570938 12.91309357 49.1668222 14.01408386 49.16796875 15.1484375 C49.17296135 16.83363998 49.17296135 16.83363998 49.17805481 18.55288696 C49.18312936 20.9353189 49.18546297 23.31775798 49.18530273 25.70019531 C49.18748645 29.3523325 49.20562919 33.00416645 49.22460938 36.65625 C49.22754369 38.9661448 49.22952823 41.27604103 49.23046875 43.5859375 C49.23765427 44.68287933 49.24483978 45.77982117 49.25224304 46.91000366 C49.24916641 47.92760773 49.24608978 48.94521179 49.24291992 49.99365234 C49.24434494 50.88998383 49.24576996 51.78631531 49.24723816 52.70980835 C49 55 49 55 47 58 C44.87475586 58.3742218 44.87475586 58.3742218 42.21484375 58.37231445 C40.72319702 58.38165764 40.72319702 58.38165764 39.20141602 58.39118958 C38.12432373 58.38197983 37.04723145 58.37277008 35.9375 58.36328125 C34.835271 58.36377975 33.73304199 58.36427826 32.59741211 58.36479187 C30.26381633 58.36244828 27.93021816 58.35270312 25.59667969 58.33618164 C22.01474521 58.31259709 18.43355481 58.31561772 14.8515625 58.32226562 C12.58853721 58.31668896 10.32551506 58.30957915 8.0625 58.30078125 C6.44686157 58.30214836 6.44686157 58.30214836 4.79858398 58.30354309 C3.80415283 58.29401108 2.80972168 58.28447906 1.78515625 58.2746582 C0.46849976 58.26774712 0.46849976 58.26774712 -0.87475586 58.26069641 C-3 58 -3 58 -5 56 C-5.25396729 53.79882812 -5.25396729 53.79882812 -5.25878906 51.03125 C-5.26509338 49.99677734 -5.27139771 48.96230469 -5.27789307 47.89648438 C-5.2738446 46.77564453 -5.26979614 45.65480469 -5.265625 44.5 C-5.26753845 43.35337891 -5.2694519 42.20675781 -5.27142334 41.02539062 C-5.27278622 38.59765402 -5.26908267 36.16991016 -5.26074219 33.7421875 C-5.25004438 30.01545927 -5.26063431 26.28921314 -5.2734375 22.5625 C-5.27211592 20.20833226 -5.26955357 17.85416483 -5.265625 15.5 C-5.26967346 14.37916016 -5.27372192 13.25832031 -5.27789307 12.10351562 C-5.27158875 11.06904297 -5.26528442 10.03457031 -5.25878906 8.96875 C-5.25719788 8.05544922 -5.25560669 7.14214844 -5.25396729 6.20117188 C-5 4 -5 4 -3 2 C-2.01 2 -1.02 2 0 2 C0 1.34 0 0.68 0 0 Z " fill="#F2F1F1" transform="translate(10,3)"/>
<path d="M0 0 C0.99 0 1.98 0 3 0 C3 0.66 3 1.32 3 2 C8.94 2 14.88 2 21 2 C21 1.34 21 0.68 21 0 C21.66 0 22.32 0 23 0 C23 0.66 23 1.32 23 2 C28.94 2 34.88 2 41 2 C41 1.34 41 0.68 41 0 C41.99 0 42.98 0 44 0 C44 0.66 44 1.32 44 2 C44.639375 2.144375 45.27875 2.28875 45.9375 2.4375 C48 3 48 3 49 4 C49 8.62 49 13.24 49 18 C31.18 18 13.36 18 -5 18 C-5 4 -5 4 -3 2 C-2.01 2 -1.02 2 0 2 C0 1.34 0 0.68 0 0 Z " fill="#29479C" transform="translate(10,3)"/>
<path d="M0 0 C0.99 0 1.98 0 3 0 C3 0.66 3 1.32 3 2 C8.94 2 14.88 2 21 2 C21 1.34 21 0.68 21 0 C21.66 0 22.32 0 23 0 C23.1953125 2.01822917 23.390625 4.03645833 23.5859375 6.0546875 C23.86374749 8.22668245 23.86374749 8.22668245 26 10 C26.125 12.625 26.125 12.625 26 15 C23.625 15.625 23.625 15.625 21 16 C20.34 15.34 19.68 14.68 19 14 C19 12.68 19 11.36 19 10 C18.34 10 17.68 10 17 10 C17 11.98 17 13.96 17 16 C16.67 16 16.34 16 16 16 C16 14.02 16 12.04 16 10 C14.02 10.33 12.04 10.66 10 11 C9.67 11.99 9.34 12.98 9 14 C10.32 14 11.64 14 13 14 C13 14.66 13 15.32 13 16 C11.948125 15.814375 10.89625 15.62875 9.8125 15.4375 C6.40457789 15.04642697 4.26910788 15.23079815 1 16 C0 15 0 15 -0.0625 11.1875 C-0.04416777 9.79163158 -0.0233064 8.39579423 0 7 C0 5.68 0 4.36 0 3 C0 2.01 0 1.02 0 0 Z " fill="#4E65A9" transform="translate(10,3)"/>
<path d="M0 0 C6.27 0 12.54 0 19 0 C18.67 1.32 18.34 2.64 18 4 C18.33 4.66 18.66 5.32 19 6 C16.36 6.33 13.72 6.66 11 7 C10.67 8.98 10.34 10.96 10 13 C9.67 13 9.34 13 9 13 C9 11.02 9 9.04 9 7 C7.35 7 5.7 7 4 7 C3.67 7.66 3.34 8.32 3 9 C-0.0279691 5.59353476 0 4.9819505 0 0 Z " fill="#26449A" transform="translate(33,5)"/>
<path d="M0 0 C2.97 0 5.94 0 9 0 C9 0.66 9 1.32 9 2 C7.02 2 5.04 2 3 2 C3 2.66 3 3.32 3 4 C3.61875 4.12375 4.2375 4.2475 4.875 4.375 C7 5 7 5 9 7 C8.625 10.625 8.625 10.625 8 14 C4.625 14.625 4.625 14.625 1 15 C0.34 14.34 -0.32 13.68 -1 13 C-1 12.01 -1 11.02 -1 10 C-0.01 10 0.98 10 2 10 C2.33 10.66 2.66 11.32 3 12 C3.66 12 4.32 12 5 12 C5 10.68 5 9.36 5 8 C3.02 8 1.04 8 -1 8 C-0.67 5.36 -0.34 2.72 0 0 Z " fill="#F69D33" transform="translate(28,32)"/>
<path d="M0 0 C2.125 0.375 2.125 0.375 4 1 C4 2.98 4 4.96 4 7 C2.34385343 7.38218767 0.67542976 7.71395102 -1 8 C-2 7 -2 7 -2.1875 4.5625 C-2 2 -2 2 0 0 Z " fill="#9DA8CA" transform="translate(12,11)"/>
<path d="M0 0 C1.66611905 -0.042721 3.33382885 -0.04063832 5 0 C6 1 6 1 6.0625 3.5625 C6.041875 4.366875 6.02125 5.17125 6 6 C4.34385343 6.38218767 2.67542976 6.71395102 1 7 C0 6 0 6 -0.0625 2.9375 C-0.041875 1.968125 -0.02125 0.99875 0 0 Z " fill="#A0ABCB" transform="translate(30,12)"/>
<path d="M0 0 C1.65 0 3.3 0 5 0 C5 1.98 5 3.96 5 6 C3.35 6.33 1.7 6.66 0 7 C0 4.69 0 2.38 0 0 Z " fill="#B9C0D5" transform="translate(37,12)"/>
<path d="M0 0 C2.475 0.495 2.475 0.495 5 1 C5 3.31 5 5.62 5 8 C3.33333333 8 1.66666667 8 0 8 C0 5.36 0 2.72 0 0 Z " fill="#BCC3D6" transform="translate(49,11)"/>
<path d="M0 0 C1.32 0.33 2.64 0.66 4 1 C4.33 2.98 4.66 4.96 5 7 C3.35 7 1.7 7 0 7 C0 4.69 0 2.38 0 0 Z " fill="#B5BDD4" transform="translate(43,12)"/>
<path d="M0 0 C-0.33 1.65 -0.66 3.3 -1 5 C-4 4 -4 4 -5.1875 1.9375 C-5.5896875 0.9784375 -5.5896875 0.9784375 -6 0 C-3.50907189 -1.24546405 -2.58919267 -0.7767578 0 0 Z " fill="#F2EAE1" transform="translate(34,40)"/>
<path d="M0 0 C0.99 0 1.98 0 3 0 C3.33 1.98 3.66 3.96 4 6 C2.68 6.33 1.36 6.66 0 7 C0 4.66666667 0 2.33333333 0 0 Z " fill="#C57836" transform="translate(51,3)"/>
<path d="M0 0 C0.99 0 1.98 0 3 0 C3.33 1.98 3.66 3.96 4 6 C2.68 6.33 1.36 6.66 0 7 C0 4.66666667 0 2.33333333 0 0 Z " fill="#C57836" transform="translate(10,3)"/>
<path d="M0 0 C0.66 0 1.32 0 2 0 C2.33 2.31 2.66 4.62 3 7 C1.68 7 0.36 7 -1 7 C-0.67 4.69 -0.34 2.38 0 0 Z " fill="#CB7B32" transform="translate(31,3)"/>
</svg>
