<?xml version="1.0" encoding="UTF-8"?>
<svg version="1.1" xmlns="http://www.w3.org/2000/svg" width="64" height="64">
<path d="M0 0 C1.55429893 -0.04282614 3.10813753 -0.11064748 4.66015625 -0.20507812 C13.01654182 -0.70821597 20.47511748 -0.50500879 27.02880859 5.26318359 C33.28031439 11.7415153 33.23929885 19.5823426 33.21456909 28.16372681 C33.13310668 31.58976162 32.9953272 35.0109018 32.85693359 38.43505859 C32.81382715 40.77220569 32.77601977 43.10945685 32.74365234 45.44677734 C32.65974162 49.6936708 32.56960902 53.93920438 32.39941406 58.18359375 C32.36766083 59.0312027 32.33590759 59.87881165 32.30319214 60.75210571 C31.98193359 62.81005859 31.98193359 62.81005859 29.98193359 64.81005859 C28.08447266 65.06402588 28.08447266 65.06402588 25.74755859 65.06884766 C24.87325195 65.07515198 23.99894531 65.0814563 23.09814453 65.08795166 C21.67937012 65.08187897 21.67937012 65.08187897 20.23193359 65.07568359 C19.26288086 65.07759705 18.29382812 65.0795105 17.29541016 65.08148193 C15.24430075 65.08284439 13.19318274 65.07914377 11.14208984 65.07080078 C7.9947582 65.06010219 4.84799739 65.07069413 1.70068359 65.08349609 C-0.288901 65.08217451 -2.27848525 65.07961214 -4.26806641 65.07568359 C-5.21391602 65.07973206 -6.15976562 65.08378052 -7.13427734 65.08795166 C-8.4457373 65.07849518 -8.4457373 65.07849518 -9.78369141 65.06884766 C-10.55487305 65.06725647 -11.32605469 65.06566528 -12.12060547 65.06402588 C-14.01806641 64.81005859 -14.01806641 64.81005859 -16.01806641 62.81005859 C-16.27203369 60.30517578 -16.27203369 60.30517578 -16.27685547 57.10693359 C-16.28315979 55.91229492 -16.28946411 54.71765625 -16.29595947 53.48681641 C-16.29191101 52.19098633 -16.28786255 50.89515625 -16.28369141 49.56005859 C-16.28503819 48.22249277 -16.28697883 46.88492743 -16.28948975 45.54736328 C-16.29244041 42.74295393 -16.28814534 39.93867191 -16.27880859 37.13427734 C-16.26741394 33.53600937 -16.27397374 29.93803974 -16.28595352 26.33978271 C-16.29317377 23.57745101 -16.29088347 20.81519026 -16.28569794 18.05285645 C-16.28371115 16.07966926 -16.28979482 14.10647934 -16.29595947 12.13330078 C-16.28965515 10.93866211 -16.28335083 9.74402344 -16.27685547 8.51318359 C-16.27526428 7.45776367 -16.2736731 6.40234375 -16.27203369 5.31494141 C-15.56052558 -1.70267285 -5.44003091 0.11227081 0 0 Z " fill="#6FA3F2" transform="translate(24.01806640625,-0.81005859375)"/>
<path d="M0 0 C4.70444489 -0.07712205 9.26017566 -0.01407125 13.9375 0.5 C20.69104447 1.13997684 27.40919133 1.11000297 34.1875 1.0625 C35.42564453 1.05798828 36.66378906 1.05347656 37.93945312 1.04882812 C40.95968785 1.03716699 43.97981677 1.02080236 47 1 C47 1.99 47 2.98 47 4 C45.45843445 5.54156555 44.02554236 5.13468494 41.87915039 5.14526367 C40.56757713 5.15483345 40.56757713 5.15483345 39.22950745 5.16459656 C37.8029911 5.16626579 37.8029911 5.16626579 36.34765625 5.16796875 C34.89195473 5.17296135 34.89195473 5.17296135 33.40684509 5.17805481 C31.3497668 5.1831283 29.29268025 5.18546301 27.2355957 5.18530273 C24.07945256 5.18748826 20.92365929 5.20563691 17.76757812 5.22460938 C15.7734387 5.22754333 13.77929761 5.22952811 11.78515625 5.23046875 C10.36167625 5.24124702 10.36167625 5.24124702 8.90943909 5.25224304 C8.03190475 5.24916641 7.15437042 5.24608978 6.25024414 5.24291992 C5.4760463 5.24434494 4.70184845 5.24576996 3.90419006 5.24723816 C2 5 2 5 0 3 C0 2.01 0 1.02 0 0 Z " fill="#4D77D2" transform="translate(8,59)"/>
<path d="M0 0 C9.24 0 18.48 0 28 0 C28 1.65 28 3.3 28 5 C18.76 5 9.52 5 0 5 C0 3.35 0 1.7 0 0 Z " fill="#E6EBF0" transform="translate(18,42)"/>
<path d="M0 0 C9.24 0 18.48 0 28 0 C28 1.65 28 3.3 28 5 C18.76 5 9.52 5 0 5 C0 3.35 0 1.7 0 0 Z " fill="#E6ECF0" transform="translate(18,34)"/>
<path d="M0 0 C9.24 0 18.48 0 28 0 C28 1.65 28 3.3 28 5 C18.76 5 9.52 5 0 5 C0 3.35 0 1.7 0 0 Z " fill="#E6ECF0" transform="translate(18,26)"/>
<path d="M0 0 C3.77313502 0.94328376 4.71906319 1.2705458 7.3125 3.8125 C7.84488281 4.31394531 8.37726562 4.81539063 8.92578125 5.33203125 C10 7 10 7 9.79296875 9.07421875 C9 11 9 11 7 13 C3.375 13.125 3.375 13.125 0 13 C0 8.71 0 4.42 0 0 Z " fill="#8CB3F4" transform="translate(41,0)"/>
<path d="M0 0 C4.95 0 9.9 0 15 0 C14.67 1.65 14.34 3.3 14 5 C9.38 5 4.76 5 0 5 C0 3.35 0 1.7 0 0 Z " fill="#E3EAF0" transform="translate(18,50)"/>
<path d="M0 0 C4 1 4 1 6 3 C5.9375 4.875 5.9375 4.875 5 7 C2.4375 9.25 2.4375 9.25 0 11 C0 7.37 0 3.74 0 0 Z " fill="#9FBFF9" transform="translate(42,1)"/>
<path d="M0 0 C6.93 0 13.86 0 21 0 C21 0.99 21 1.98 21 3 C14.07 2.67 7.14 2.34 0 2 C0 1.34 0 0.68 0 0 Z " fill="#4B81E1" transform="translate(34,60)"/>
<path d="M0 0 C2 1.3125 2 1.3125 4 3 C4 3.99 4 4.98 4 6 C-0.29 6 -4.58 6 -9 6 C-9 5.67 -9 5.34 -9 5 C-7.88625 4.731875 -6.7725 4.46375 -5.625 4.1875 C-1.78159049 3.34190981 -1.78159049 3.34190981 0 0 Z " fill="#7BA9F0" transform="translate(51,8)"/>
<path d="M0 0 C2.64 0 5.28 0 8 0 C6.35 1.32 4.7 2.64 3 4 C2.01 2.68 1.02 1.36 0 0 Z " fill="#5C8BE0" transform="translate(43,14)"/>
</svg>
