<?xml version="1.0" encoding="UTF-8"?>
<svg version="1.1" xmlns="http://www.w3.org/2000/svg" width="64" height="64">
<path d="M0 0 C3.97248155 3.56504755 4.590102 6.77380055 5 12 C5.515625 11.505 6.03125 11.01 6.5625 10.5 C9.96381375 8.40688385 12.07072743 8.44852315 16 9 C19.69186542 11.59216083 20.82883761 13.04149064 21.625 17.5 C20.82883761 21.95850936 19.69186542 23.40783917 16 26 C12.5 26.625 12.5 26.625 9 26 C6.1339542 23.75700764 4.40071927 22.14050868 3.1875 18.6875 C3.125625 18.130625 3.06375 17.57375 3 17 C1.948125 17.9590625 1.948125 17.9590625 0.875 18.9375 C-2.36426722 21.26132213 -4.03135708 21.92062714 -8 22 C-11.63655436 20.72720597 -14.26735971 19.73264029 -17 17 C-17.6496875 18.670625 -17.6496875 18.670625 -18.3125 20.375 C-20 24 -20 24 -23 26 C-27.36253463 26.56551375 -29.29752588 26.49322651 -32.9375 23.9375 C-35 21 -35 21 -35.625 17.5 C-34.82883761 13.04149064 -33.69186542 11.59216083 -30 9 C-25.72394153 8.47487001 -22.66244303 8.65603646 -19 11 C-18.773125 9.7625 -18.54625 8.525 -18.3125 7.25 C-17.50692549 4.02198866 -17.0416505 3.04274657 -14.625 0.5625 C-9.46347345 -2.50983723 -5.47213117 -2.25851821 0 0 Z " fill="#000000" transform="translate(39,6)"/>
<path d="M0 0 C1.17175781 -0.02900391 1.17175781 -0.02900391 2.3671875 -0.05859375 C6.81699239 -0.02113748 10.58642289 0.48303073 13.94970703 3.73486328 C16.39659136 8.13834503 15.63226689 13.49759815 15.4375 18.375 C15.41880859 19.53644531 15.40011719 20.69789062 15.38085938 21.89453125 C15.19619975 30.42880025 15.19619975 30.42880025 14 31.625 C11.9394469 31.72493532 9.8754741 31.75580906 7.8125 31.7578125 C6.55695312 31.75910156 5.30140625 31.76039062 4.0078125 31.76171875 C3.35071289 31.75962402 2.69361328 31.7575293 2.01660156 31.75537109 C0.00838665 31.75002234 -1.99960459 31.75531691 -4.0078125 31.76171875 C-5.26335938 31.76042969 -6.51890625 31.75914063 -7.8125 31.7578125 C-8.97394531 31.75668457 -10.13539062 31.75555664 -11.33203125 31.75439453 C-14 31.625 -14 31.625 -15 30.625 C-15.36512661 26.55095571 -15.3717078 22.46319136 -15.4375 18.375 C-15.48326172 17.22902344 -15.52902344 16.08304688 -15.57617188 14.90234375 C-15.6838968 6.85575989 -15.6838968 6.85575989 -13.94970703 3.73486328 C-9.94510876 -0.1370317 -5.21009416 -0.12896273 0 0 Z " fill="#000000" transform="translate(32,28.375)"/>
<path d="M0 0 C10 0 10 0 13.08984375 1.9296875 C15.68726921 6.10469038 15.70567928 9.30334092 15.5625 14.125 C15.57345703 14.93582031 15.58441406 15.74664062 15.59570312 16.58203125 C15.54016213 21.06233832 15.54016213 21.06233832 15 23 C11 26 11 26 1 26 C0.67 17.42 0.34 8.84 0 0 Z " fill="#000000" transform="translate(49,34)"/>
<path d="M0 0 C-0.33 8.58 -0.66 17.16 -1 26 C-11 26 -11 26 -15 23 C-15.81087726 20.09123297 -15.60315576 17.13352611 -15.5625 14.125 C-15.59827148 12.92037109 -15.59827148 12.92037109 -15.63476562 11.69140625 C-15.62469852 7.61758474 -15.28049465 5.45085644 -13.08984375 1.9296875 C-10 0 -10 0 0 0 Z " fill="#000000" transform="translate(15,34)"/>
</svg>
