<?xml version="1.0" encoding="UTF-8"?>
<svg version="1.1" xmlns="http://www.w3.org/2000/svg" width="64" height="64">
<path d="M0 0 C4.94586526 2.29629459 7.30760518 5.31323865 10 10 C10.495 11.485 10.495 11.485 11 13 C12.0725 13.433125 13.145 13.86625 14.25 14.3125 C18.24397309 15.93479423 21.17878684 18.00300121 23 22 C23.92077635 27.42773429 23.69423044 31.6354781 21.1875 36.5625 C19 39 19 39 16 41 C15.01 41 14.02 41 13 41 C13.01571045 41.93851807 13.01571045 41.93851807 13.03173828 42.89599609 C13.07323191 45.7222901 13.09930473 48.54852011 13.125 51.375 C13.14175781 52.35984375 13.15851562 53.3446875 13.17578125 54.359375 C13.18544922 55.77089844 13.18544922 55.77089844 13.1953125 57.2109375 C13.21102295 58.51490479 13.21102295 58.51490479 13.22705078 59.84521484 C13 62 13 62 11 64 C8.01037897 64.20006302 5.1153765 64.27972923 2.125 64.265625 C1.24473145 64.26753845 0.36446289 64.2694519 -0.54248047 64.27142334 C-2.40527634 64.27278552 -4.26808169 64.26908682 -6.13085938 64.26074219 C-8.98849736 64.25004307 -11.84550666 64.26063632 -14.703125 64.2734375 C-16.51041806 64.27211591 -18.31771073 64.26955353 -20.125 64.265625 C-20.98335449 64.26967346 -21.84170898 64.27372192 -22.72607422 64.27789307 C-28.77008255 64.22991745 -28.77008255 64.22991745 -31 62 C-31.22705078 59.93701172 -31.22705078 59.93701172 -31.1953125 57.4296875 C-31.18564453 56.08583984 -31.18564453 56.08583984 -31.17578125 54.71484375 C-31.15902344 53.77769531 -31.14226563 52.84054688 -31.125 51.875 C-31.11597656 50.93011719 -31.10695313 49.98523437 -31.09765625 49.01171875 C-31.07404522 46.67422708 -31.04111516 44.33723877 -31 42 C-31.94101562 41.71125 -32.88203125 41.4225 -33.8515625 41.125 C-37.799886 39.71418465 -39.00068929 38.69103515 -41 35 C-41.74470485 30.83104484 -42.01100895 26.85786885 -39.94140625 23.0546875 C-38.18848762 20.90125037 -36.49430733 19.24715367 -34 18 C-33.27915259 16.21037855 -33.27915259 16.21037855 -32.6875 14.125 C-31.63921486 11.21483529 -31.12233267 10.10874015 -28.75 8 C-25.3725687 6.77184316 -22.56604414 6.7902327 -19 7 C-18.6596875 6.1028125 -18.6596875 6.1028125 -18.3125 5.1875 C-14.33560793 -1.44065345 -6.80733246 -0.82205236 0 0 Z " fill="#3D4B4E" transform="translate(41,0)"/>
<path d="M0 0 C3.865328 2.49098916 6.25191732 5.00138673 7.625 9.4375 C9.15445946 12.49641892 10.8998097 12.79119443 13.9921875 13.94921875 C17.390186 15.56071589 18.79653297 17.63582468 20.8125 20.8125 C21.51005366 25.15283388 21.12160208 27.20574407 19.125 31.125 C16.74667008 33.88900505 15.27878726 34.84964243 11.8125 35.8125 C10.76273036 32.66319107 10.71118405 30.42435544 10.75 27.125 C10.75902344 26.13113281 10.76804688 25.13726563 10.77734375 24.11328125 C10.78894531 23.35402344 10.80054688 22.59476563 10.8125 21.8125 C7.59596721 20.2042336 4.09098471 20.67070315 0.55859375 20.6796875 C-0.25745834 20.67873077 -1.07351044 20.67777405 -1.91429138 20.67678833 C-3.64004595 20.67610744 -5.36580308 20.67795539 -7.09155273 20.68212891 C-9.74273383 20.68748532 -12.39374603 20.68217733 -15.04492188 20.67578125 C-16.71875038 20.67644191 -18.39257877 20.67772283 -20.06640625 20.6796875 C-20.86430069 20.67766327 -21.66219513 20.67563904 -22.48426819 20.67355347 C-26.13545276 20.34268038 -26.13545276 20.34268038 -29.1875 21.8125 C-29.26008946 23.99889453 -29.27123783 26.18750389 -29.25 28.375 C-29.24097656 29.57253906 -29.23195313 30.77007812 -29.22265625 32.00390625 C-29.21105469 32.93074219 -29.19945312 33.85757813 -29.1875 34.8125 C-31.6625 35.3075 -31.6625 35.3075 -34.1875 35.8125 C-36.9533488 32.8338936 -38.87609277 30.59921299 -40.375 26.8125 C-40.12821692 22.86397068 -38.64890316 21.62025389 -35.828125 19.01171875 C-34.1875 17.8125 -34.1875 17.8125 -31.1875 16.8125 C-30.49498793 14.99981595 -30.49498793 14.99981595 -30.1875 12.875 C-29.8125 10.72265625 -29.8125 10.72265625 -29.1875 8.8125 C-26.1875 6.8125 -26.1875 6.8125 -22.25 6.5 C-18.83902153 6.16326721 -18.40525158 6.04839755 -15.9375 3.375 C-15.36 2.529375 -14.7825 1.68375 -14.1875 0.8125 C-9.81110372 -2.35661455 -4.86873276 -1.81384162 0 0 Z " fill="#6BD6D7" transform="translate(41.1875,3.1875)"/>
<path d="M0 0 C4.94586526 2.29629459 7.30760518 5.31323865 10 10 C10.495 11.485 10.495 11.485 11 13 C12.0725 13.433125 13.145 13.86625 14.25 14.3125 C18.24397309 15.93479423 21.17878684 18.00300121 23 22 C23.92077635 27.42773429 23.69423044 31.6354781 21.1875 36.5625 C19 39 19 39 16 41 C15.01 41 14.02 41 13 41 C13.01571045 41.93851807 13.01571045 41.93851807 13.03173828 42.89599609 C13.07323191 45.7222901 13.09930473 48.54852011 13.125 51.375 C13.14175781 52.35984375 13.15851562 53.3446875 13.17578125 54.359375 C13.18544922 55.77089844 13.18544922 55.77089844 13.1953125 57.2109375 C13.21102295 58.51490479 13.21102295 58.51490479 13.22705078 59.84521484 C13 62 13 62 11 64 C8.01037897 64.20006302 5.1153765 64.27972923 2.125 64.265625 C1.24473145 64.26753845 0.36446289 64.2694519 -0.54248047 64.27142334 C-2.40527634 64.27278552 -4.26808169 64.26908682 -6.13085938 64.26074219 C-8.98849736 64.25004307 -11.84550666 64.26063632 -14.703125 64.2734375 C-16.51041806 64.27211591 -18.31771073 64.26955353 -20.125 64.265625 C-20.98335449 64.26967346 -21.84170898 64.27372192 -22.72607422 64.27789307 C-28.77008255 64.22991745 -28.77008255 64.22991745 -31 62 C-31.1953125 59.8359375 -31.1953125 59.8359375 -31.125 57.375 C-31.09792969 56.14910156 -31.09792969 56.14910156 -31.0703125 54.8984375 C-31.03550781 53.95871094 -31.03550781 53.95871094 -31 53 C-30.01 52.505 -30.01 52.505 -29 52 C-28.77213542 54.05078125 -28.54427083 56.1015625 -28.31640625 58.15234375 C-28.18113386 60.01140229 -28.18113386 60.01140229 -27 61 C-24.3337397 61.08855161 -21.69352886 61.11524673 -19.02734375 61.09765625 C-17.83087975 61.09553383 -17.83087975 61.09553383 -16.61024475 61.09336853 C-14.05262565 61.08775316 -11.49509282 61.07519812 -8.9375 61.0625 C-7.20768355 61.05748698 -5.47786574 61.05292373 -3.74804688 61.04882812 C0.50133553 61.03777875 4.75065312 61.02050386 9 61 C9 58.03 9 55.06 9 52 C-2.22 51.67 -13.44 51.34 -25 51 C-25 50.67 -25 50.34 -25 50 C-23.50835327 49.96241577 -23.50835327 49.96241577 -21.98657227 49.92407227 C-18.30951253 49.83015118 -14.6326485 49.72989381 -10.95581055 49.62768555 C-9.362107 49.58427854 -7.7683552 49.54260781 -6.17456055 49.50268555 C-3.88836092 49.44512193 -1.60240551 49.38138851 0.68359375 49.31640625 C1.7586039 49.29133751 1.7586039 49.29133751 2.85533142 49.26576233 C6.21527382 49.44981346 6.21527382 49.44981346 9 48 C9 45.03 9 42.06 9 39 C-8.325 38.505 -8.325 38.505 -26 38 C-26 37.67 -26 37.34 -26 37 C-8.675 36.505 -8.675 36.505 9 36 C9 32.7 9 29.4 9 26 C-2.88 25.67 -14.76 25.34 -27 25 C-27 24.67 -27 24.34 -27 24 C-21.60653012 23.97535151 -16.21309275 23.95716469 -10.81958008 23.94506836 C-8.98331125 23.94002769 -7.14704646 23.93319523 -5.31079102 23.92456055 C-2.67723599 23.91248328 -0.04373384 23.90676919 2.58984375 23.90234375 C3.41588608 23.89718246 4.24192841 23.89202118 5.09300232 23.88670349 C7.06236368 23.88650795 9.03161614 23.93795848 11 24 C12 25 12 25 12.09765625 27.94140625 C12.08605469 29.13636719 12.07445312 30.33132812 12.0625 31.5625 C12.05347656 32.76003906 12.04445312 33.95757812 12.03515625 35.19140625 C12.02355469 36.11824219 12.01195312 37.04507813 12 38 C15.87876608 36.62236768 15.87876608 36.62236768 18.8125 33.8125 C20.34280578 30.18809156 20.54810099 27.90521954 20 24 C17.3569688 19.83522357 16.05913132 18.40878753 11.4375 16.625 C7.21551941 14.62915463 6.66598934 12.98782774 4.8984375 8.87109375 C3.72659838 6.43061141 2.35674327 5.2924076 0 4 C-3.61930698 2.79356434 -6.19231005 2.67731441 -10 3 C-13.70390021 5.02666238 -15.65363011 6.48044516 -18 10 C-20.3828125 10.73046875 -20.3828125 10.73046875 -23.125 11.1875 C-24.03507812 11.34605469 -24.94515625 11.50460937 -25.8828125 11.66796875 C-26.58148438 11.77753906 -27.28015625 11.88710937 -28 12 C-28.15855469 12.61488281 -28.31710938 13.22976563 -28.48046875 13.86328125 C-30.41374046 20.56030534 -30.41374046 20.56030534 -33.5 22.875 C-34.325 23.24625 -35.15 23.6175 -36 24 C-36.556875 24.556875 -37.11375 25.11375 -37.6875 25.6875 C-38.120625 26.120625 -38.55375 26.55375 -39 27 C-39.66 27 -40.32 27 -41 27 C-40.00741309 23.75153376 -39.33186928 22.24677459 -36.5625 20.1875 C-33.89549079 17.91078482 -33.51703203 17.12226316 -32.5 13.9375 C-31.52631964 11.03268691 -31.11903622 10.10580997 -28.75 8 C-25.3725687 6.77184316 -22.56604414 6.7902327 -19 7 C-18.6596875 6.1028125 -18.6596875 6.1028125 -18.3125 5.1875 C-14.33560793 -1.44065345 -6.80733246 -0.82205236 0 0 Z " fill="#383B3B" transform="translate(41,0)"/>
<path d="M0 0 C0.77915771 0.00202423 1.55831543 0.00404846 2.36108398 0.00613403 C3.15635498 0.00517731 3.95162598 0.00422058 4.77099609 0.00323486 C6.45564859 0.0025531 8.1403037 0.00440711 9.82495117 0.00857544 C12.41257595 0.01392378 15.00002714 0.00863034 17.58764648 0.00222778 C19.22045937 0.00288857 20.85327215 0.00416973 22.48608398 0.00613403 C23.2652417 0.0041098 24.04439941 0.00208557 24.84716797 0 C30.30863294 0.02399549 30.30863294 0.02399549 31.42358398 1.13894653 C31.52148968 2.63632778 31.55333263 4.13837545 31.54858398 5.63894653 C31.55245117 6.86097778 31.55245117 6.86097778 31.55639648 8.10769653 C31.42358398 10.13894653 31.42358398 10.13894653 30.42358398 11.13894653 C27.76902205 11.23990218 25.14103223 11.27865652 22.48608398 11.27175903 C21.29317749 11.27319412 21.29317749 11.27319412 20.07617188 11.2746582 C18.39151938 11.27533996 16.70686427 11.27348596 15.0222168 11.26931763 C12.43459202 11.26396929 9.84714083 11.26926272 7.25952148 11.27566528 C5.6267086 11.2750045 3.99389582 11.27372334 2.36108398 11.27175903 C1.58192627 11.27378326 0.80276855 11.2758075 0 11.27789307 C-5.46146497 11.25389758 -5.46146497 11.25389758 -6.57641602 10.13894653 C-6.67432171 8.64156529 -6.70616466 7.13951761 -6.70141602 5.63894653 C-6.70399414 4.82425903 -6.70657227 4.00957153 -6.70922852 3.17019653 C-6.43281403 -1.05731906 -3.57547782 0.01570922 0 0 Z " fill="#5B91B7" transform="translate(19.576416015625,50.861053466796875)"/>
<path d="M0 0 C9.24 0 18.48 0 28 0 C28 1.32 28 2.64 28 4 C28.99 4 29.98 4 31 4 C31 2.68 31 1.36 31 0 C33.31 0 35.62 0 38 0 C38 3.3 38 6.6 38 10 C25.46 10 12.92 10 0 10 C0 6.7 0 3.4 0 0 Z " fill="#5A8FB4" transform="translate(13,26)"/>
<path d="M0 0 C1.32 0.33 2.64 0.66 4 1 C3.67 2.98 3.34 4.96 3 7 C6.93075644 6.42547254 6.93075644 6.42547254 10 4 C10.99 5.485 10.99 5.485 12 7 C13.32 6.67 14.64 6.34 16 6 C15.67 4.02 15.34 2.04 15 0 C18.3 0 21.6 0 25 0 C25 0.66 25 1.32 25 2 C24.01 2.495 24.01 2.495 23 3 C25.31 3 27.62 3 30 3 C29.34 2.67 28.68 2.34 28 2 C28 1.34 28 0.68 28 0 C31.3 0 34.6 0 38 0 C38.09765625 6.93359375 38.09765625 6.93359375 38 9 C36.21169552 10.78830448 33.80418848 10.12848711 31.42358398 10.13894653 C30.64442627 10.1369223 29.86526855 10.13489807 29.0625 10.1328125 C27.86959351 10.13424759 27.86959351 10.13424759 26.65258789 10.13571167 C24.9679354 10.13639343 23.28328029 10.13453943 21.59863281 10.13037109 C19.01100803 10.12502275 16.42355684 10.13031619 13.8359375 10.13671875 C12.20312461 10.13605797 10.57031184 10.1347768 8.9375 10.1328125 C8.15834229 10.13483673 7.37918457 10.13686096 6.57641602 10.13894653 C1.11495105 10.11495105 1.11495105 10.11495105 0 9 C-0.07179964 7.48071962 -0.08392007 5.95832518 -0.0625 4.4375 C-0.05347656 3.61121094 -0.04445313 2.78492188 -0.03515625 1.93359375 C-0.02355469 1.29550781 -0.01195312 0.65742187 0 0 Z " fill="#487F9D" transform="translate(13,39)"/>
<path d="M0 0 C11.88 0 23.76 0 36 0 C36 0.33 36 0.66 36 1 C33.03 1 30.06 1 27 1 C27 1.66 27 2.32 27 3 C27.99 3.33 28.98 3.66 30 4 C26.62182575 4.84454356 24.32534757 5.10844919 21 4 C21.99 3.67 22.98 3.34 24 3 C24 2.34 24 1.68 24 1 C20.7 1 17.4 1 14 1 C14.66 1.99 15.32 2.98 16 4 C15.625 6.1875 15.625 6.1875 15 8 C13.1875 8.625 13.1875 8.625 11 9 C10.01 8.34 9.02 7.68 8 7 C7.34 7.66 6.68 8.32 6 9 C3.375 8.625 3.375 8.625 1 8 C1.20625 7.05125 1.4125 6.1025 1.625 5.125 C1.74875 4.09375 1.8725 3.0625 2 2 C1.34 1.34 0.68 0.68 0 0 Z " fill="#487A91" transform="translate(14,38)"/>
<path d="M0 0 C2.31 0 4.62 0 7 0 C5.68 0.99 4.36 1.98 3 3 C3.33 4.32 3.66 5.64 4 7 C6.86724686 6.42655063 7.8614515 6.1385485 10 4 C10.99 5.485 10.99 5.485 12 7 C16.3170063 8.4390021 20.83717624 8.54070594 25.25 7.4375 C27.44440658 6.88889836 28.87430598 7.31674121 31 8 C31.33 7.34 31.66 6.68 32 6 C33.32 6.66 34.64 7.32 36 8 C36 7.01 36 6.02 36 5 C35.34 4.67 34.68 4.34 34 4 C34.66 4 35.32 4 36 4 C36 3.01 36 2.02 36 1 C35.01 1 34.02 1 33 1 C33 1.66 33 2.32 33 3 C32.34 3 31.68 3 31 3 C31 2.01 31 1.02 31 0 C33.31 0 35.62 0 38 0 C38.02689216 1.47906892 38.04634621 2.95827483 38.0625 4.4375 C38.07410156 5.26121094 38.08570313 6.08492187 38.09765625 6.93359375 C38 9 38 9 37 10 C34.34543807 10.10095564 31.71744824 10.13970998 29.0625 10.1328125 C27.86959351 10.13424759 27.86959351 10.13424759 26.65258789 10.13571167 C24.9679354 10.13639343 23.28328029 10.13453943 21.59863281 10.13037109 C19.01100803 10.12502275 16.42355684 10.13031619 13.8359375 10.13671875 C12.20312461 10.13605797 10.57031184 10.1347768 8.9375 10.1328125 C8.15834229 10.13483673 7.37918457 10.13686096 6.57641602 10.13894653 C1.11495105 10.11495105 1.11495105 10.11495105 0 9 C-0.07179964 7.48071962 -0.08392007 5.95832518 -0.0625 4.4375 C-0.05347656 3.61121094 -0.04445313 2.78492188 -0.03515625 1.93359375 C-0.02355469 1.29550781 -0.01195312 0.65742187 0 0 Z " fill="#5C95BD" transform="translate(13,52)"/>
<path d="M0 0 C1.98 0 3.96 0 6 0 C5.505 0.4125 5.01 0.825 4.5 1.25 C2.56613908 3.12202338 2.56613908 3.12202338 3 7 C6.93075644 6.42547254 6.93075644 6.42547254 10 4 C10.99 5.485 10.99 5.485 12 7 C12.99 7.66 13.98 8.32 15 9 C14 10 14 10 10.83984375 10.09765625 C8.90818359 10.08025391 8.90818359 10.08025391 6.9375 10.0625 C5.64714844 10.05347656 4.35679688 10.04445313 3.02734375 10.03515625 C2.02832031 10.02355469 1.02929688 10.01195312 0 10 C0 6.7 0 3.4 0 0 Z " fill="#5E9AC4" transform="translate(13,26)"/>
<path d="M0 0 C11.88 0 23.76 0 36 0 C36 0.33 36 0.66 36 1 C33.03 1 30.06 1 27 1 C27 1.66 27 2.32 27 3 C27.99 3.33 28.98 3.66 30 4 C26.62182575 4.84454356 24.32534757 5.10844919 21 4 C21.99 3.67 22.98 3.34 24 3 C24 2.34 24 1.68 24 1 C16.08 1 8.16 1 0 1 C0 0.67 0 0.34 0 0 Z " fill="#42677A" transform="translate(14,38)"/>
<path d="M0 0 C11.88 0 23.76 0 36 0 C36 0.33 36 0.66 36 1 C34.02 1 32.04 1 30 1 C30 2.32 30 3.64 30 5 C29.01 5 28.02 5 27 5 C27 3.68 27 2.36 27 1 C18.09 1 9.18 1 0 1 C0 0.67 0 0.34 0 0 Z " fill="#486376" transform="translate(14,25)"/>
<path d="M0 0 C2.31 0 4.62 0 7 0 C7 2.97 7 5.94 7 9 C2.05 9 -2.9 9 -8 9 C-4 7 -4 7 -1.75 7.375 C-1.1725 7.58125 -0.595 7.7875 0 8 C0.33 7.34 0.66 6.68 1 6 C2.32 6.66 3.64 7.32 5 8 C5 7.01 5 6.02 5 5 C4.34 4.67 3.68 4.34 3 4 C3.66 4 4.32 4 5 4 C5 3.01 5 2.02 5 1 C4.01 1 3.02 1 2 1 C2 1.66 2 2.32 2 3 C1.34 3 0.68 3 0 3 C0 2.01 0 1.02 0 0 Z " fill="#5F9CC7" transform="translate(44,52)"/>
<path d="M0 0 C2.475 0.99 2.475 0.99 5 2 C5 1.34 5 0.68 5 0 C5.99 0 6.98 0 8 0 C8 2.31 8 4.62 8 7 C7.4225 6.814375 6.845 6.62875 6.25 6.4375 C3.79307475 5.95976454 2.35602466 6.24270636 0 7 C0 4.69 0 2.38 0 0 Z " fill="#4C6B81" transform="translate(41,53)"/>
<path d="M0 0 C2.0625 0.4375 2.0625 0.4375 4 1 C4.625 2.875 4.625 2.875 5 5 C4.34 5.66 3.68 6.32 3 7 C0.875 6.625 0.875 6.625 -1 6 C-1.042721 4.33388095 -1.04063832 2.66617115 -1 1 C-0.67 0.67 -0.34 0.34 0 0 Z " fill="#456166" transform="translate(25,53)"/>
<path d="M0 0 C2.0625 0.4375 2.0625 0.4375 4 1 C4 2.65 4 4.3 4 6 C2.125 6.625 2.125 6.625 0 7 C-0.66 6.34 -1.32 5.68 -2 5 C-1.46428571 1.46428571 -1.46428571 1.46428571 0 0 Z " fill="#4F544D" transform="translate(17,53)"/>
<path d="M0 0 C1.65 0.33 3.3 0.66 5 1 C4.67 2.65 4.34 4.3 4 6 C2.35 5.67 0.7 5.34 -1 5 C-0.67 3.35 -0.34 1.7 0 0 Z " fill="#4D4F45" transform="translate(16,41)"/>
<path d="M0 0 C1.65 0.33 3.3 0.66 5 1 C4.67 2.65 4.34 4.3 4 6 C2.35 5.67 0.7 5.34 -1 5 C-0.67 3.35 -0.34 1.7 0 0 Z " fill="#4E4F45" transform="translate(16,28)"/>
<path d="M0 0 C1.65 0.33 3.3 0.66 5 1 C4.67 2.65 4.34 4.3 4 6 C2.35 5.67 0.7 5.34 -1 5 C-0.67 3.35 -0.34 1.7 0 0 Z " fill="#405155" transform="translate(25,28)"/>
<path d="M0 0 C-0.185625 0.763125 -0.37125 1.52625 -0.5625 2.3125 C-1.22819173 5.08967375 -1.22819173 5.08967375 0 8 C-1.875 7.75 -1.875 7.75 -4 7 C-5.25 4.9375 -5.25 4.9375 -6 3 C-3.375 0 -3.375 0 0 0 Z " fill="#456363" transform="translate(28,12)"/>
<path d="M0 0 C1.875 0.25 1.875 0.25 4 1 C5.25 3.0625 5.25 3.0625 6 5 C4.6875 6.5 4.6875 6.5 3 8 C2.01 8 1.02 8 0 8 C0.66 6.02 1.32 4.04 2 2 C1.34 2 0.68 2 0 2 C0 1.34 0 0.68 0 0 Z " fill="#446161" transform="translate(36,12)"/>
<path d="M0 0 C1.32 0.33 2.64 0.66 4 1 C3.67 2.32 3.34 3.64 3 5 C1.68 5.33 0.36 5.66 -1 6 C-1.33 4.68 -1.66 3.36 -2 2 C-1.67 2.66 -1.34 3.32 -1 4 C-0.34 3.34 0.32 2.68 1 2 C0.67 1.34 0.34 0.68 0 0 Z " fill="#394144" transform="translate(26,41)"/>
<path d="M0 0 C1.32 0.66 2.64 1.32 4 2 C3.34 2 2.68 2 2 2 C1.67 2.99 1.34 3.98 1 5 C-0.65 4.67 -2.3 4.34 -4 4 C-3.01 3.67 -2.02 3.34 -1 3 C-0.67 2.01 -0.34 1.02 0 0 Z " fill="#5582A1" transform="translate(39,55)"/>
<path d="M0 0 C1.98 0.495 1.98 0.495 4 1 C3.67 2.32 3.34 3.64 3 5 C1.68 5.33 0.36 5.66 -1 6 C-1 4 -1 4 0.5 2.375 C0.995 1.92125 1.49 1.4675 2 1 C1.34 0.67 0.68 0.34 0 0 Z " fill="#3D464B" transform="translate(26,54)"/>
<path d="M0 0 C0.66 0 1.32 0 2 0 C1.47731534 2.76276177 0.89130413 5.3260876 0 8 C-0.66 8 -1.32 8 -2 8 C-1.125 2.25 -1.125 2.25 0 0 Z " fill="#3C4747" transform="translate(32,12)"/>
</svg>
